<?xml version="1.0" encoding="UTF-8"?>
<svg width="20px" height="20px" viewBox="0 0 20 20" version="1.1" xmlns="http://www.w3.org/2000/svg" xmlns:xlink="http://www.w3.org/1999/xlink">
    <title>pause-icon</title>
    <g id="pause-icon" stroke="none" stroke-width="1" fill="none" fill-rule="evenodd">
        <path d="M14.5023999,4 C15.3295016,4 16,4.67049839 16,5.49760007 L16,15.5023999 C16,16.3295016 15.3295016,17 14.5023999,17 L13.9976001,17 C13.1704984,17 12.5,16.3295016 12.5,15.5023999 L12.5,5.49760007 C12.5,4.67049839 13.1704984,4 13.9976001,4 L14.5023999,4 Z M6.00239993,4 C6.82950161,4 7.5,4.67049839 7.5,5.49760007 L7.5,15.5023999 C7.5,16.3295016 6.82950161,17 6.00239993,17 L5.49760007,17 C4.67049839,17 4,16.3295016 4,15.5023999 L4,5.49760007 C4,4.67049839 4.67049839,4 5.49760007,4 L6.00239993,4 Z" id="Pause" fill="#2F87FF"></path>
    </g>
</svg>